<svg width="1440" height="741" viewBox="0 0 1440 741" fill="none" xmlns="http://www.w3.org/2000/svg">
<rect x="1223.07" y="10.1181" width="216.933" height="638.435" fill="#0D0000"/>
<rect y="17.3879" width="353.034" height="631.165" fill="#401107"/>
<g style="mix-blend-mode:hard-light">
<path d="M14.6523 296.972H23.5085V506.672C23.5085 509.117 21.526 511.1 19.0804 511.1C16.6349 511.1 14.6523 509.117 14.6523 506.672V296.972Z" fill="#460808"/>
</g>
<g style="mix-blend-mode:hard-light">
<path d="M83.8826 308.598H92.7388V560.572C92.7388 563.017 90.7562 565 88.3107 565C85.8651 565 83.8826 563.017 83.8826 560.572V308.598Z" fill="#460808"/>
</g>
<g style="mix-blend-mode:hard-light">
<path d="M150.994 313.2H159.85V573.268C159.85 575.714 157.867 577.696 155.422 577.696C152.976 577.696 150.994 575.714 150.994 573.268V313.2Z" fill="#460808"/>
</g>
<g style="mix-blend-mode:hard-light">
<path d="M216.088 308.45H224.944V564.332C224.944 566.778 222.962 568.76 220.516 568.76C218.07 568.76 216.088 566.778 216.088 564.332V308.45Z" fill="#460808"/>
</g>
<g style="mix-blend-mode:color-dodge" opacity="0.6">
<path d="M44.6506 43.7864L21.252 47.9862L65.0496 119.982L62.0498 96.5835L97.4478 104.383L44.6506 43.7864Z" stroke="#401107"/>
</g>
<g style="mix-blend-mode:hard-light" opacity="0.8" filter="url(#filter0_d_45_110)">
<path d="M51.2505 118.782L15.2524 73.7847V56.9857L44.0508 52.7859L89.6483 107.983C86.8484 107.983 78.9688 107.263 69.8494 104.383C60.7299 101.503 58.45 105.583 58.45 107.983L51.2505 118.782Z" fill="#401107"/>
</g>
<g style="mix-blend-mode:hard-light" opacity="0.8" filter="url(#filter1_d_45_110)">
<path d="M126.846 145.181L62.0498 50.386L90.2482 35.3869L103.447 50.386L117.847 56.9857L157.444 129.582L151.445 136.781L126.846 145.181Z" fill="#460808"/>
<path d="M126.846 145.181L62.0498 50.386L90.2482 35.3869L103.447 50.386L117.847 56.9857L157.444 129.582L151.445 136.781L126.846 145.181Z" stroke="#460808"/>
</g>
<g style="mix-blend-mode:hard-light" opacity="0.8" filter="url(#filter2_d_45_110)">
<path d="M149.045 53.3859L135.246 41.3865L162.844 21.5876H179.043L238.44 106.783L220.441 94.1836L228.241 106.783H220.441L234.84 127.182L215.041 113.383L228.241 131.382L207.242 113.383L197.642 127.182V135.581L143.645 64.7852L149.045 53.3859Z" fill="#460808"/>
<path d="M149.045 53.3859L135.246 41.3865L162.844 21.5876H179.043L238.44 106.783L220.441 94.1836L228.241 106.783H220.441L234.84 127.182L215.041 113.383L228.241 131.382L207.242 113.383L197.642 127.182V135.581L143.645 64.7852L149.045 53.3859Z" stroke="#460808"/>
</g>
<g style="mix-blend-mode:hard-light" opacity="0.8" filter="url(#filter3_d_45_110)">
<path d="M41.051 213.577L5.65283 167.979L15.2524 149.98L41.051 154.18V164.98L68.6494 206.377L47.0506 199.178L41.051 213.577Z" fill="#460808"/>
<path d="M41.051 213.577L5.65283 167.979L15.2524 149.98L41.051 154.18V164.98L68.6494 206.377L47.0506 199.178L41.051 213.577Z" stroke="#460808"/>
</g>
<g style="mix-blend-mode:hard-light" opacity="0.8" filter="url(#filter4_d_45_110)">
<path d="M225.241 171.579L220.441 162.58L243.24 125.982L251.039 134.981L258.239 129.582L299.637 187.178V200.978L285.837 187.178L295.437 212.377L285.837 207.577L288.837 217.777L273.238 207.577L267.238 223.176L225.241 171.579Z" fill="#460808"/>
<path d="M225.241 171.579L220.441 162.58L243.24 125.982L251.039 134.981L258.239 129.582L299.637 187.178V200.978L285.837 187.178L295.437 212.377L285.837 207.577L288.837 217.777L273.238 207.577L267.238 223.176L225.241 171.579Z" stroke="#460808"/>
</g>
<g style="mix-blend-mode:hard-light" filter="url(#filter5_d_45_110)">
<path d="M34.4514 211.777L-24.3455 243.575L38.0511 307.772L48.8505 298.772H53.0503L74.6491 312.571L59.0499 290.373L84.8485 312.571L63.2497 274.774L84.8485 284.973L34.4514 211.777Z" fill="#460808"/>
<path d="M34.4514 211.777L-24.3455 243.575L38.0511 307.772L48.8505 298.772H53.0503L74.6491 312.571L59.0499 290.373L84.8485 312.571L63.2497 274.774L84.8485 284.973L34.4514 211.777Z" stroke="#460808"/>
</g>
<g style="mix-blend-mode:hard-light" opacity="0.8" filter="url(#filter6_d_45_110)">
<path d="M254.039 304.172L223.441 260.974L239.64 242.375L270.238 257.375L314.036 316.171L291.837 304.172L281.638 316.171L254.039 304.172Z" fill="#460808"/>
<path d="M254.039 304.172L223.441 260.974L239.64 242.375L270.238 257.375L314.036 316.171L291.837 304.172L281.638 316.171L254.039 304.172Z" stroke="#460808"/>
</g>
<g style="mix-blend-mode:soft-light">
<path d="M258.239 10.1181H268.738L263.639 684.551H260.339L258.239 10.1181Z" fill="#460808"/>
</g>
<g style="mix-blend-mode:hard-light" filter="url(#filter7_d_45_110)">
<path d="M282.837 473.363C281.772 469.337 281.797 466.28 284.937 456.863C288.588 451.992 291.654 449.466 298.137 445.164L315.536 447.264L318.536 470.663L352.734 506.661V648.553H231.84L236.04 636.853H247.439L269.038 622.754L284.937 636.853L305.336 620.354L298.137 611.655C291.145 604.081 287.608 599.826 284.937 592.156C285.052 587.755 284.98 585.458 287.937 577.457L298.137 568.457L287.937 547.758C284.432 539.254 283.193 534.178 282.837 524.36C284.309 518.91 285.68 515.755 290.637 509.661C298.622 506.545 303.05 505.529 310.736 506.661L298.137 490.162L282.837 473.363Z" fill="#460808"/>
<path d="M282.837 473.363C281.772 469.337 281.797 466.28 284.937 456.863C288.588 451.992 291.654 449.466 298.137 445.164L315.536 447.264L318.536 470.663L352.734 506.661V648.553H231.84L236.04 636.853H247.439L269.038 622.754L284.937 636.853L305.336 620.354L298.137 611.655C291.145 604.081 287.608 599.826 284.937 592.156C285.052 587.755 284.98 585.458 287.937 577.457L298.137 568.457L287.937 547.758C284.432 539.254 283.193 534.178 282.837 524.36C284.309 518.91 285.68 515.755 290.637 509.661C298.622 506.545 303.05 505.529 310.736 506.661L298.137 490.162L282.837 473.363Z" stroke="#460808"/>
</g>
<g style="mix-blend-mode:hard-light">
<rect x="336.235" y="17.3879" width="16.499" height="625.165" fill="#460808"/>
</g>
<g style="mix-blend-mode:hard-light" opacity="0.8">
<path d="M-134.452 523.447L-45.103 434.097L174.309 648.784L-3.93843 648.784L-134.452 523.447Z" fill="#460808"/>
</g>
<g style="mix-blend-mode:hard-light" opacity="0.8">
<rect x="-38.2771" y="434.081" width="15.3136" height="314.381" transform="rotate(-45 -38.2771 434.081)" fill="#460808"/>
</g>
<g style="mix-blend-mode:hard-light" opacity="0.8" filter="url(#filter8_d_45_110)">
<path d="M89.0483 401.966L54.8501 422.965L107.647 492.561L131.646 487.762L145.445 505.161L158.644 496.161L89.0483 401.966Z" fill="#460808"/>
<path d="M135.846 380.368L139.445 367.168L151.445 374.368L158.644 355.169L219.841 422.965L228.241 418.766L288.837 492.561L256.439 505.161L243.84 496.161L238.44 515.36L204.242 482.362L176.043 451.164L182.043 442.164L135.846 380.368Z" fill="#460808"/>
</g>
<g style="mix-blend-mode:hard-light" opacity="0.8">
<path d="M331.435 71.9849L275.038 15.588H347.934V249.275L297.837 199.178V174.879H314.336L281.488 142.031L297.837 125.682L306.236 133.181L320.335 125.682L288.837 94.1836L302.036 79.1844V71.9849H331.435Z" fill="#460808"/>
<path d="M331.435 71.9849L275.038 15.588H347.934V249.275L297.837 199.178V174.879H314.336L281.488 142.031L297.837 125.682L306.236 133.181L320.335 125.682L288.837 94.1836L302.036 79.1844V71.9849H331.435Z" stroke="#460808"/>
</g>
<g style="mix-blend-mode:hard-light" opacity="0.8" filter="url(#filter9_d_45_110)">
<path d="M9.85278 296.372L-13.5459 309.572L24.8519 371.968V349.169L59.0499 352.769L9.85278 296.372Z" fill="#460808"/>
</g>
<g style="mix-blend-mode:plus-lighter" opacity="0.2">
<rect x="70.5994" y="99.1334" width="128.693" height="188.689" rx="3.25" fill="#460808"/>
<rect x="70.5994" y="99.1334" width="128.693" height="188.689" rx="3.25" stroke="#731702" stroke-width="1.5"/>
</g>
<rect x="79.4487" y="108.583" width="109.194" height="167.991" fill="#0D0000"/>
<rect x="134.046" y="257.074" width="4.49976" height="9.89944" fill="#365324"/>
<rect x="169.444" y="257.074" width="4.49976" height="9.89944" fill="#365324"/>
<rect x="94.748" y="257.074" width="4.49976" height="9.89944" fill="#365324"/>
<rect x="94.748" y="248.175" width="4.49976" height="7.49957" fill="#26361C"/>
<rect x="134.046" y="248.175" width="4.49976" height="7.49957" fill="#26361C"/>
<rect x="169.444" y="248.175" width="4.49976" height="7.49957" fill="#26361C"/>
<rect x="96.2478" y="239.975" width="3" height="4.49976" fill="#365324"/>
<rect x="134.796" y="239.975" width="3" height="4.49976" fill="#365324"/>
<rect x="170.944" y="239.975" width="3" height="4.49976" fill="#365324"/>
<rect x="95.6479" y="229.476" width="3.59985" height="7.4996" fill="#8B5517"/>
<rect x="134.946" y="229.476" width="3.59985" height="7.4996" fill="#8B5517"/>
<rect x="170.644" y="228.776" width="3.59985" height="7.4996" fill="#8B5517"/>
<rect x="170.644" y="218.576" width="3.59985" height="7.4996" fill="#854B07"/>
<rect x="135.496" y="218.976" width="3.59985" height="7.4996" fill="#854B07"/>
<rect x="96.2478" y="220.576" width="3.59985" height="7.4996" fill="#854B07"/>
<rect x="96.2478" y="211.077" width="3.59985" height="7.4996" fill="#854B07"/>
<rect x="134.946" y="210.077" width="3.59985" height="7.4996" fill="#854B07"/>
<rect x="134.946" y="201.777" width="3.59985" height="5.89905" fill="#851D07"/>
<rect x="96.0479" y="202.177" width="3.59985" height="5.89905" fill="#851D07"/>
<rect x="95.6479" y="192.178" width="3.59985" height="5.89905" fill="#851D07"/>
<rect x="96.2478" y="185.379" width="3.59985" height="3.79935" fill="#851D07"/>
<rect x="135.496" y="192.578" width="3.59985" height="5.89905" fill="#851D07"/>
<rect x="134.946" y="183.379" width="3.59985" height="5.89905" fill="#731702"/>
<rect x="134.946" y="174.48" width="3.59985" height="5.89905" fill="#401107"/>
<rect x="170.944" y="209.677" width="3.59985" height="7.4996" fill="#854B07"/>
<rect x="171.344" y="199.477" width="3.59985" height="7.4996" fill="#731702"/>
<rect x="170.944" y="194.678" width="3.59985" height="3.39902" fill="#401107"/>
<rect x="134.846" y="129.582" width="6.29956" height="3.2998" fill="#731702"/>
<rect x="145.645" y="129.582" width="6.29956" height="3.2998" fill="#731702"/>
<rect x="156.445" y="129.582" width="3.09985" height="3.2998" fill="#401107"/>
<rect x="116.446" y="129.582" width="3.09985" height="3.2998" fill="#401107"/>
<rect x="124.046" y="129.582" width="6.29956" height="3.2998" fill="#731702"/>
<g style="mix-blend-mode:multiply" opacity="0.3" filter="url(#filter10_d_45_110)">
<rect x="80.0488" y="108.583" width="79.4956" height="153.441" fill="#460808"/>
</g>
<g style="mix-blend-mode:multiply">
<rect x="189.388" y="54.4801" width="2.0498" height="11.3994" rx="1.0249" transform="rotate(86.6567 189.388 54.4801)" fill="#DAC983"/>
<rect x="147.073" y="54.4865" width="2.0498" height="11.3994" rx="1.0249" transform="rotate(110.17 147.073 54.4865)" fill="#DAC983"/>
<rect x="150.418" y="47.0266" width="2.0498" height="11.3994" rx="1.0249" transform="rotate(125.909 150.418 47.0266)" fill="#DAC983"/>
<rect x="156.489" y="45.2727" width="2.0498" height="11.3994" rx="1.0249" transform="rotate(158.581 156.489 45.2727)" fill="#DAC983"/>
<rect x="163.91" y="43.917" width="2.0498" height="11.3994" rx="1.0249" transform="rotate(-180 163.91 43.917)" fill="#DAC983"/>
<rect x="170.89" y="46.0212" width="2.0498" height="11.3994" rx="1.0249" transform="rotate(-148.731 170.89 46.0212)" fill="#DAC983"/>
<rect width="2.0498" height="11.3994" rx="1.0249" transform="matrix(0.586497 0.809952 0.809952 -0.586497 175.806 50.5833)" fill="#DAC983"/>
</g>
<g style="mix-blend-mode:multiply">
<path d="M185.099 59.0856C185.099 69.0261 178.197 77.6845 167.492 77.6845C156.787 77.6845 145.201 71.126 145.201 61.1854C145.201 51.2448 155.01 39.5866 165.715 39.5866C176.42 39.5866 185.099 49.145 185.099 59.0856Z" fill="#401107"/>
</g>
<ellipse cx="161.025" cy="56.2357" rx="17.774" ry="17.249" fill="#DAC983"/>
<circle cx="159.85" cy="56.2357" r="17.249" fill="#731702"/>
<rect x="167.165" y="50.3886" width="2.0498" height="11.3994" rx="1.0249" transform="rotate(34.0305 167.165 50.3886)" fill="#BA721E"/>
<g style="mix-blend-mode:multiply">
<rect x="262.722" y="54.4801" width="2.0498" height="11.3994" rx="1.0249" transform="rotate(86.6567 262.722 54.4801)" fill="#DAC983"/>
<rect x="220.407" y="54.4865" width="2.0498" height="11.3994" rx="1.0249" transform="rotate(110.17 220.407 54.4865)" fill="#DAC983"/>
<rect x="223.752" y="47.0266" width="2.0498" height="11.3994" rx="1.0249" transform="rotate(125.909 223.752 47.0266)" fill="#DAC983"/>
<rect x="229.823" y="45.2727" width="2.0498" height="11.3994" rx="1.0249" transform="rotate(158.581 229.823 45.2727)" fill="#DAC983"/>
<rect x="237.244" y="43.917" width="2.0498" height="11.3994" rx="1.0249" transform="rotate(-180 237.244 43.917)" fill="#DAC983"/>
<rect x="244.224" y="46.0212" width="2.0498" height="11.3994" rx="1.0249" transform="rotate(-148.731 244.224 46.0212)" fill="#DAC983"/>
<rect width="2.0498" height="11.3994" rx="1.0249" transform="matrix(0.586497 0.809952 0.809952 -0.586497 249.14 50.5833)" fill="#DAC983"/>
</g>
<g style="mix-blend-mode:multiply">
<path d="M257.939 60.7744C257.939 71.576 251.123 80.9843 240.55 80.9843C229.977 80.9843 218.534 73.8578 218.534 63.0562C218.534 52.2546 228.222 39.5866 238.795 39.5866C249.368 39.5866 257.939 49.9729 257.939 60.7744Z" fill="#401107"/>
</g>
<ellipse cx="234.358" cy="56.2357" rx="17.774" ry="17.249" fill="#DAC983"/>
<circle cx="233.183" cy="56.2357" r="17.249" fill="#731702"/>
<rect x="232.089" y="51.7751" width="2.0498" height="11.3994" rx="1.0249" transform="rotate(-21.8168 232.089 51.7751)" fill="#BA721E"/>
<g style="mix-blend-mode:multiply">
<rect x="262.722" y="153.194" width="2.0498" height="11.3994" rx="1.0249" transform="rotate(86.6567 262.722 153.194)" fill="#DAC983"/>
<rect x="220.407" y="153.2" width="2.0498" height="11.3994" rx="1.0249" transform="rotate(110.17 220.407 153.2)" fill="#DAC983"/>
<rect x="223.752" y="145.741" width="2.0498" height="11.3994" rx="1.0249" transform="rotate(125.909 223.752 145.741)" fill="#DAC983"/>
<rect x="229.823" y="143.987" width="2.0498" height="11.3994" rx="1.0249" transform="rotate(158.581 229.823 143.987)" fill="#DAC983"/>
<rect x="237.244" y="142.631" width="2.0498" height="11.3994" rx="1.0249" transform="rotate(-180 237.244 142.631)" fill="#DAC983"/>
<rect x="244.224" y="144.735" width="2.0498" height="11.3994" rx="1.0249" transform="rotate(-148.731 244.224 144.735)" fill="#DAC983"/>
<rect width="2.0498" height="11.3994" rx="1.0249" transform="matrix(0.586497 0.809952 0.809952 -0.586497 249.14 149.297)" fill="#DAC983"/>
</g>
<g style="mix-blend-mode:multiply">
<path d="M258.432 157.799C258.432 167.74 251.531 176.398 240.825 176.398C230.12 176.398 218.534 169.84 218.534 159.899C218.534 149.959 228.343 138.301 239.049 138.301C249.754 138.301 258.432 147.859 258.432 157.799Z" fill="#401107"/>
</g>
<ellipse cx="234.358" cy="154.95" rx="17.774" ry="17.249" fill="#DAC983"/>
<circle cx="233.183" cy="154.95" r="17.249" fill="#731702"/>
<rect x="240.499" y="149.102" width="2.0498" height="11.3994" rx="1.0249" transform="rotate(34.0305 240.499 149.102)" fill="#BA721E"/>
<g style="mix-blend-mode:multiply">
<rect x="262.722" y="248.238" width="2.0498" height="11.3994" rx="1.0249" transform="rotate(86.6567 262.722 248.238)" fill="#DAC983"/>
<rect x="220.407" y="248.245" width="2.0498" height="11.3994" rx="1.0249" transform="rotate(110.17 220.407 248.245)" fill="#DAC983"/>
<rect x="223.752" y="240.785" width="2.0498" height="11.3994" rx="1.0249" transform="rotate(125.909 223.752 240.785)" fill="#DAC983"/>
<rect x="229.823" y="239.031" width="2.0498" height="11.3994" rx="1.0249" transform="rotate(158.581 229.823 239.031)" fill="#DAC983"/>
<rect x="237.244" y="237.675" width="2.0498" height="11.3994" rx="1.0249" transform="rotate(-180 237.244 237.675)" fill="#DAC983"/>
<rect x="244.224" y="239.779" width="2.0498" height="11.3994" rx="1.0249" transform="rotate(-148.731 244.224 239.779)" fill="#DAC983"/>
<rect width="2.0498" height="11.3994" rx="1.0249" transform="matrix(0.586497 0.809952 0.809952 -0.586497 249.14 244.342)" fill="#DAC983"/>
</g>
<g style="mix-blend-mode:multiply">
<path d="M258.432 252.844C258.432 262.784 251.531 271.443 240.825 271.443C230.12 271.443 218.534 264.884 218.534 254.944C218.534 245.003 228.343 233.345 239.049 233.345C249.754 233.345 258.432 242.903 258.432 252.844Z" fill="#401107"/>
</g>
<ellipse cx="234.358" cy="249.994" rx="17.774" ry="17.249" fill="#DAC983"/>
<circle cx="233.183" cy="249.994" r="17.249" fill="#731702"/>
<rect x="220.407" y="247.242" width="2.0498" height="11.3994" rx="1.0249" transform="rotate(-30 220.407 247.242)" fill="#BA721E"/>
<g style="mix-blend-mode:multiply">
<rect x="42.7219" y="248.238" width="2.0498" height="11.3994" rx="1.0249" transform="rotate(86.6567 42.7219 248.238)" fill="#DAC983"/>
<rect x="0.406982" y="248.245" width="2.0498" height="11.3994" rx="1.0249" transform="rotate(110.17 0.406982 248.245)" fill="#DAC983"/>
<rect x="3.75171" y="240.785" width="2.0498" height="11.3994" rx="1.0249" transform="rotate(125.909 3.75171 240.785)" fill="#DAC983"/>
<rect x="9.82275" y="239.031" width="2.0498" height="11.3994" rx="1.0249" transform="rotate(158.581 9.82275 239.031)" fill="#DAC983"/>
<rect x="17.2439" y="237.675" width="2.0498" height="11.3994" rx="1.0249" transform="rotate(-180 17.2439 237.675)" fill="#DAC983"/>
<rect x="24.2239" y="239.779" width="2.0498" height="11.3994" rx="1.0249" transform="rotate(-148.731 24.2239 239.779)" fill="#DAC983"/>
<rect width="2.0498" height="11.3994" rx="1.0249" transform="matrix(0.586497 0.809952 0.809952 -0.586497 29.1396 244.342)" fill="#DAC983"/>
</g>
<g style="mix-blend-mode:multiply">
<path d="M38.4321 252.844C38.4321 262.784 31.5306 271.443 20.8253 271.443C10.1201 271.443 -1.46572 264.884 -1.46572 254.944C-1.46572 245.003 8.34326 233.345 19.0485 233.345C29.7538 233.345 38.4321 242.903 38.4321 252.844Z" fill="#401107"/>
</g>
<ellipse cx="14.3583" cy="249.994" rx="17.774" ry="17.249" fill="#DAC983"/>
<circle cx="13.1834" cy="249.994" r="17.249" fill="#731702"/>
<rect x="19.031" y="241.829" width="2.0498" height="11.3994" rx="1.0249" transform="rotate(12.9051 19.031 241.829)" fill="#BA721E"/>
<g style="mix-blend-mode:multiply">
<rect x="42.7219" y="153.194" width="2.0498" height="11.3994" rx="1.0249" transform="rotate(86.6567 42.7219 153.194)" fill="#DAC983"/>
<rect x="0.406982" y="153.2" width="2.0498" height="11.3994" rx="1.0249" transform="rotate(110.17 0.406982 153.2)" fill="#DAC983"/>
<rect x="3.75171" y="145.74" width="2.0498" height="11.3994" rx="1.0249" transform="rotate(125.909 3.75171 145.74)" fill="#DAC983"/>
<rect x="9.82275" y="143.987" width="2.0498" height="11.3994" rx="1.0249" transform="rotate(158.581 9.82275 143.987)" fill="#DAC983"/>
<rect x="17.2439" y="142.631" width="2.0498" height="11.3994" rx="1.0249" transform="rotate(-180 17.2439 142.631)" fill="#DAC983"/>
<rect x="24.2239" y="144.735" width="2.0498" height="11.3994" rx="1.0249" transform="rotate(-148.731 24.2239 144.735)" fill="#DAC983"/>
<rect width="2.0498" height="11.3994" rx="1.0249" transform="matrix(0.586497 0.809952 0.809952 -0.586497 29.1396 149.297)" fill="#DAC983"/>
</g>
<g style="mix-blend-mode:multiply">
<path d="M38.4321 157.799C38.4321 167.74 31.5306 176.398 20.8253 176.398C10.1201 176.398 -1.46572 169.84 -1.46572 159.899C-1.46572 149.959 8.34326 138.301 19.0485 138.301C29.7538 138.301 38.4321 147.859 38.4321 157.799Z" fill="#401107"/>
</g>
<ellipse cx="14.3583" cy="154.95" rx="17.774" ry="17.249" fill="#DAC983"/>
<circle cx="13.1834" cy="154.95" r="17.249" fill="#731702"/>
<rect x="12.459" y="146.788" width="2.0498" height="11.3994" rx="1.0249" transform="rotate(-22.1001 12.459 146.788)" fill="#BA721E"/>
<g style="mix-blend-mode:multiply">
<rect x="42.7219" y="53.8591" width="2.0498" height="11.3994" rx="1.0249" transform="rotate(86.6567 42.7219 53.8591)" fill="#DAC983"/>
<rect x="0.406982" y="53.8655" width="2.0498" height="11.3994" rx="1.0249" transform="rotate(110.17 0.406982 53.8655)" fill="#DAC983"/>
<rect x="3.75171" y="46.4056" width="2.0498" height="11.3994" rx="1.0249" transform="rotate(125.909 3.75171 46.4056)" fill="#DAC983"/>
<rect x="9.82275" y="44.6517" width="2.0498" height="11.3994" rx="1.0249" transform="rotate(158.581 9.82275 44.6517)" fill="#DAC983"/>
<rect x="17.2439" y="43.296" width="2.0498" height="11.3994" rx="1.0249" transform="rotate(-180 17.2439 43.296)" fill="#DAC983"/>
<rect x="24.2239" y="45.4003" width="2.0498" height="11.3994" rx="1.0249" transform="rotate(-148.731 24.2239 45.4003)" fill="#DAC983"/>
<rect width="2.0498" height="11.3994" rx="1.0249" transform="matrix(0.586497 0.809952 0.809952 -0.586497 29.1396 49.9623)" fill="#DAC983"/>
</g>
<g style="mix-blend-mode:multiply">
<path d="M38.4321 58.4646C38.4321 68.4052 31.5306 77.0635 20.8253 77.0635C10.1201 77.0635 -1.46572 70.505 -1.46572 60.5645C-1.46572 50.6239 8.34326 38.9657 19.0485 38.9657C29.7538 38.9657 38.4321 48.524 38.4321 58.4646Z" fill="#401107"/>
</g>
<ellipse cx="14.3583" cy="55.6147" rx="17.774" ry="17.249" fill="#DAC983"/>
<circle cx="13.1834" cy="55.6147" r="17.249" fill="#731702"/>
<rect x="21.4954" y="47.3555" width="2.0498" height="11.3994" rx="1.0249" transform="rotate(10.8379 21.4954 47.3555)" fill="#BA721E"/>
<g style="mix-blend-mode:multiply">
<rect x="333.722" y="524.962" width="2.0498" height="11.3994" rx="1.0249" transform="rotate(86.6567 333.722 524.962)" fill="#DAC983"/>
<rect x="291.407" y="524.969" width="2.0498" height="11.3994" rx="1.0249" transform="rotate(110.17 291.407 524.969)" fill="#DAC983"/>
<rect x="294.752" y="517.509" width="2.0498" height="11.3994" rx="1.0249" transform="rotate(125.909 294.752 517.509)" fill="#DAC983"/>
<rect x="300.823" y="515.755" width="2.0498" height="11.3994" rx="1.0249" transform="rotate(158.581 300.823 515.755)" fill="#DAC983"/>
<rect x="308.244" y="514.399" width="2.0498" height="11.3994" rx="1.0249" transform="rotate(-180 308.244 514.399)" fill="#DAC983"/>
<rect x="315.224" y="516.504" width="2.0498" height="11.3994" rx="1.0249" transform="rotate(-148.731 315.224 516.504)" fill="#DAC983"/>
<rect width="2.0498" height="11.3994" rx="1.0249" transform="matrix(0.586497 0.809952 0.809952 -0.586497 320.14 521.066)" fill="#DAC983"/>
</g>
<g style="mix-blend-mode:multiply">
<path d="M329.432 529.568C329.432 539.508 322.531 548.167 311.825 548.167C301.12 548.167 289.534 541.608 289.534 531.668C289.534 521.727 299.343 510.069 310.049 510.069C320.754 510.069 329.432 519.627 329.432 529.568Z" fill="#401107"/>
</g>
<ellipse cx="305.358" cy="526.718" rx="17.774" ry="17.249" fill="#DAC983"/>
<circle cx="304.183" cy="526.718" r="17.249" fill="#731702"/>
<rect x="300.513" y="514.669" width="1" height="11.3994" rx="0.5" transform="rotate(-28.8225 300.513 514.669)" fill="#BA721E"/>
<g style="mix-blend-mode:multiply">
<rect x="333.722" y="462.963" width="2.0498" height="11.3994" rx="1.0249" transform="rotate(86.6567 333.722 462.963)" fill="#DAC983"/>
<rect x="291.407" y="462.969" width="2.0498" height="11.3994" rx="1.0249" transform="rotate(110.17 291.407 462.969)" fill="#DAC983"/>
<rect x="294.752" y="455.509" width="2.0498" height="11.3994" rx="1.0249" transform="rotate(125.909 294.752 455.509)" fill="#DAC983"/>
<rect x="300.823" y="453.755" width="2.0498" height="11.3994" rx="1.0249" transform="rotate(158.581 300.823 453.755)" fill="#DAC983"/>
<rect x="308.244" y="452.399" width="2.0498" height="11.3994" rx="1.0249" transform="rotate(-180 308.244 452.399)" fill="#DAC983"/>
<rect x="315.224" y="454.504" width="2.0498" height="11.3994" rx="1.0249" transform="rotate(-148.731 315.224 454.504)" fill="#DAC983"/>
<rect width="2.0498" height="11.3994" rx="1.0249" transform="matrix(0.586497 0.809952 0.809952 -0.586497 320.14 459.066)" fill="#DAC983"/>
</g>
<g style="mix-blend-mode:multiply">
<path d="M329.432 467.568C329.432 477.509 322.531 486.167 311.825 486.167C301.12 486.167 289.534 479.608 289.534 469.668C289.534 459.727 299.343 448.069 310.049 448.069C320.754 448.069 329.432 457.627 329.432 467.568Z" fill="#401107"/>
</g>
<ellipse cx="305.358" cy="464.718" rx="17.774" ry="17.249" fill="#DAC983"/>
<circle cx="304.183" cy="464.718" r="17.249" fill="#731702"/>
<rect x="300.513" y="452.669" width="1" height="11.3994" rx="0.5" transform="rotate(-28.8225 300.513 452.669)" fill="#BA721E"/>
<g style="mix-blend-mode:multiply">
<rect x="333.722" y="586.962" width="2.0498" height="11.3994" rx="1.0249" transform="rotate(86.6567 333.722 586.962)" fill="#DAC983"/>
<rect x="291.407" y="586.969" width="2.0498" height="11.3994" rx="1.0249" transform="rotate(110.17 291.407 586.969)" fill="#DAC983"/>
<rect x="294.752" y="579.509" width="2.0498" height="11.3994" rx="1.0249" transform="rotate(125.909 294.752 579.509)" fill="#DAC983"/>
<rect x="300.823" y="577.755" width="2.0498" height="11.3994" rx="1.0249" transform="rotate(158.581 300.823 577.755)" fill="#DAC983"/>
<rect x="308.244" y="576.399" width="2.0498" height="11.3994" rx="1.0249" transform="rotate(-180 308.244 576.399)" fill="#DAC983"/>
<rect x="315.224" y="578.504" width="2.0498" height="11.3994" rx="1.0249" transform="rotate(-148.731 315.224 578.504)" fill="#DAC983"/>
<rect width="2.0498" height="11.3994" rx="1.0249" transform="matrix(0.586497 0.809952 0.809952 -0.586497 320.14 583.066)" fill="#DAC983"/>
</g>
<g style="mix-blend-mode:multiply">
<path d="M329.432 591.568C329.432 601.508 322.531 610.167 311.825 610.167C301.12 610.167 289.534 603.608 289.534 593.668C289.534 583.727 299.343 572.069 310.049 572.069C320.754 572.069 329.432 581.627 329.432 591.568Z" fill="#401107"/>
</g>
<ellipse cx="305.358" cy="588.718" rx="17.774" ry="17.249" fill="#DAC983"/>
<circle cx="304.183" cy="588.718" r="17.249" fill="#731702"/>
<rect x="300.513" y="576.669" width="1" height="11.3994" rx="0.5" transform="rotate(-28.8225 300.513 576.669)" fill="#BA721E"/>
<g style="mix-blend-mode:multiply">
<rect x="117.849" y="54.9938" width="2.0498" height="11.3994" rx="1.0249" transform="rotate(86.6567 117.849 54.9938)" fill="#DAC983"/>
<rect x="75.5342" y="55.0002" width="2.0498" height="11.3994" rx="1.0249" transform="rotate(110.17 75.5342 55.0002)" fill="#DAC983"/>
<rect x="78.8789" y="47.5403" width="2.0498" height="11.3994" rx="1.0249" transform="rotate(125.909 78.8789 47.5403)" fill="#DAC983"/>
<rect x="84.95" y="45.7863" width="2.0498" height="11.3994" rx="1.0249" transform="rotate(158.581 84.95 45.7863)" fill="#DAC983"/>
<rect x="92.3711" y="44.4306" width="2.0498" height="11.3994" rx="1.0249" transform="rotate(-180 92.3711 44.4306)" fill="#DAC983"/>
<rect x="99.3511" y="46.5349" width="2.0498" height="11.3994" rx="1.0249" transform="rotate(-148.731 99.3511 46.5349)" fill="#DAC983"/>
<rect width="2.0498" height="11.3994" rx="1.0249" transform="matrix(0.586497 0.809952 0.809952 -0.586497 104.267 51.097)" fill="#DAC983"/>
</g>
<g style="mix-blend-mode:multiply">
<path d="M113.559 59.5992C113.559 69.5398 106.658 78.1982 95.9525 78.1982C85.2472 78.1982 73.6615 71.6397 73.6615 61.6991C73.6615 51.7585 83.4705 40.1003 94.1757 40.1003C104.881 40.1003 113.559 49.6586 113.559 59.5992Z" fill="#401107"/>
</g>
<ellipse cx="89.4855" cy="56.7494" rx="17.774" ry="17.249" fill="#DAC983"/>
<circle cx="88.3106" cy="56.7494" r="17.249" fill="#731702"/>
<rect x="84.6399" y="44.6999" width="1" height="11.3994" rx="0.5" transform="rotate(-28.8225 84.6399 44.6999)" fill="#BA721E"/>
<rect x="139.745" y="371.668" width="38.998" height="18.8989" fill="#731702"/>
<g style="mix-blend-mode:color-dodge">
<path d="M139.896 390.867V372.118H178.743V375.118C178.743 375.118 147.695 373.618 146.345 375.118C144.995 376.618 146.345 387.417 146.345 387.417C145.27 390.049 143.499 390.484 139.896 390.867Z" fill="#BA721E"/>
</g>
<g style="mix-blend-mode:soft-light">
<path d="M174.544 378.718C174.295 377.004 175.815 376.931 178.743 376.918V390.567H170.044L174.544 385.467V378.718Z" fill="#460808"/>
</g>
<rect x="200.942" y="443.696" width="38.998" height="18.8989" fill="#731702"/>
<g style="mix-blend-mode:color-dodge">
<path d="M201.092 462.895V444.146H239.94V447.146C239.94 447.146 208.892 445.646 207.542 447.146C206.192 448.646 207.542 459.445 207.542 459.445C206.466 462.077 204.696 462.512 201.092 462.895Z" fill="#BA721E"/>
</g>
<g style="mix-blend-mode:soft-light">
<path d="M235.74 450.746C235.491 449.032 237.011 448.96 239.94 448.946V462.595H231.24L235.74 457.495V450.746Z" fill="#460808"/>
</g>
<rect x="69.8494" y="431.401" width="38.998" height="18.8989" fill="#731702"/>
<g style="mix-blend-mode:color-dodge">
<path d="M69.9995 450.6V431.851H108.847V434.85C108.847 434.85 77.799 433.351 76.4491 434.85C75.0992 436.35 76.4491 447.15 76.4491 447.15C75.3739 449.781 73.6032 450.217 69.9995 450.6Z" fill="#BA721E"/>
</g>
<g style="mix-blend-mode:soft-light">
<path d="M104.648 438.45C104.399 436.737 105.919 436.664 108.847 436.65V450.3H100.148L104.648 445.2V438.45Z" fill="#460808"/>
</g>
<rect x="3.84351" y="319.371" width="38.998" height="18.8989" fill="#731702"/>
<g style="mix-blend-mode:color-dodge">
<path d="M3.99365 338.57V319.821H42.8414V322.821C42.8414 322.821 11.7932 321.321 10.4432 322.821C9.09332 324.321 10.4432 335.12 10.4432 335.12C9.36809 337.751 7.59729 338.187 3.99365 338.57Z" fill="#BA721E"/>
</g>
<g style="mix-blend-mode:soft-light">
<path d="M38.6417 326.421C38.3929 324.707 39.9127 324.634 42.8416 324.621V338.27H34.1418L38.6417 333.17V326.421Z" fill="#460808"/>
</g>
<rect x="300.823" y="176.729" width="38.998" height="18.8989" fill="#731702"/>
<g style="mix-blend-mode:color-dodge">
<path d="M300.973 195.928V177.179H339.821V180.179C339.821 180.179 308.772 178.679 307.422 180.179C306.073 181.679 307.422 192.478 307.422 192.478C306.347 195.109 304.577 195.545 300.973 195.928Z" fill="#BA721E"/>
</g>
<g style="mix-blend-mode:soft-light">
<path d="M335.621 183.779C335.372 182.065 336.892 181.992 339.821 181.979V195.628H331.121L335.621 190.528V183.779Z" fill="#460808"/>
</g>
<rect x="300.513" y="137.365" width="38.998" height="18.8989" fill="#731702"/>
<g style="mix-blend-mode:color-dodge">
<path d="M300.663 156.564V137.815H339.511V140.814C339.511 140.814 308.462 139.314 307.112 140.814C305.763 142.314 307.112 153.114 307.112 153.114C306.037 155.745 304.266 156.18 300.663 156.564Z" fill="#BA721E"/>
</g>
<g style="mix-blend-mode:soft-light">
<path d="M335.311 144.414C335.062 142.701 336.582 142.628 339.511 142.614V156.264H330.811L335.311 151.164V144.414Z" fill="#460808"/>
</g>
<rect x="301.642" y="98.0001" width="38.998" height="18.8989" fill="#731702"/>
<g style="mix-blend-mode:color-dodge">
<path d="M301.792 117.199V98.45H340.64V101.45C340.64 101.45 309.592 99.95 308.242 101.45C306.892 102.95 308.242 113.749 308.242 113.749C307.166 116.38 305.396 116.816 301.792 117.199Z" fill="#BA721E"/>
</g>
<g style="mix-blend-mode:soft-light">
<path d="M336.44 105.05C336.191 103.336 337.711 103.263 340.64 103.25V116.899H331.94L336.44 111.799V105.05Z" fill="#460808"/>
</g>
<rect x="300.973" y="58.6356" width="38.998" height="18.8989" fill="#731702"/>
<g style="mix-blend-mode:color-dodge">
<path d="M301.123 77.8345V59.0855H339.971V62.0853C339.971 62.0853 308.923 60.5854 307.573 62.0853C306.223 63.5853 307.573 74.3847 307.573 74.3847C306.497 77.0159 304.727 77.4514 301.123 77.8345Z" fill="#BA721E"/>
</g>
<g style="mix-blend-mode:soft-light">
<path d="M335.771 65.6851C335.522 63.9717 337.042 63.8988 339.971 63.8853V77.5345H331.271L335.771 72.4348V65.6851Z" fill="#460808"/>
</g>
<rect x="301.792" y="21.4186" width="38.998" height="18.8989" fill="#731702"/>
<g style="mix-blend-mode:color-dodge">
<path d="M301.942 40.6175V21.8685H340.79V24.8684C340.79 24.8684 309.742 23.3685 308.392 24.8684C307.042 26.3683 308.392 37.1677 308.392 37.1677C307.317 39.7989 305.546 40.2345 301.942 40.6175Z" fill="#BA721E"/>
</g>
<g style="mix-blend-mode:soft-light">
<path d="M336.59 28.4682C336.341 26.7548 337.861 26.6818 340.79 26.6683V40.3175H332.09L336.59 35.2178V28.4682Z" fill="#460808"/>
</g>
<circle cx="87.6475" cy="296.772" r="4.19995" fill="#731702"/>
<circle cx="155.422" cy="302.772" r="4.19995" fill="#731702"/>
<circle cx="220.288" cy="296.772" r="4.19995" fill="#731702"/>
<rect x="349.24" y="10.1181" width="873.827" height="638.435" fill="#460808"/>
<g style="mix-blend-mode:hard-light">
<rect x="346.975" y="10.1181" width="8.50903" height="638.435" fill="#460808"/>
</g>
<g style="mix-blend-mode:hard-light" filter="url(#filter11_d_45_110)">
<path d="M356.287 220.576V239.644L353.676 94.9076L353.386 94.5591L353.659 93.9484L353.386 78.8069V9.99518H360.433V34.4524L377.843 65.9566L369.552 60.1532L380.745 84.1958L360.433 78.8069L353.659 93.9484L353.676 94.9076L365.822 109.482L360.433 126.478L386.548 175.392L365.822 161.298L384.475 192.802L356.287 177.879L380.745 228.452L356.287 220.576Z" fill="#460808"/>
</g>
<g style="mix-blend-mode:hard-light">
<ellipse cx="432.024" cy="50.595" rx="54.0105" ry="50.3776" fill="#401107"/>
</g>
<g style="mix-blend-mode:hard-light" opacity="0.8">
<path d="M448.727 152.179L397.326 84.1958L470.283 53.5207L503.445 84.1958C481.051 105.554 468.925 119.694 448.727 152.179Z" fill="#460808"/>
<path d="M388.206 607.331L340.95 648.784H423.855L388.206 607.331Z" fill="#460808"/>
<path d="M536.607 648.784L460.334 570.853C442.801 540.891 388.206 558.417 403.958 588.263C419.71 618.109 388.206 592.408 388.206 592.408L429.659 648.784H536.607Z" fill="#460808"/>
</g>
<g style="mix-blend-mode:hard-light" opacity="0.8">
<path d="M1058.91 238.401L1020.78 173.734L1089.59 8.7516H1224.73L1218.92 330.426L1155.08 320.477L1074.67 224.307L1058.91 238.401Z" fill="#460808"/>
</g>
<g style="mix-blend-mode:hard-light" opacity="0.8" filter="url(#filter12_d_45_110)">
<path d="M1083.79 357.785L1010.83 266.589C978.711 459.101 911.46 534.836 760.453 649.613H1047.31L959.427 593.237L992.589 571.682L1047.31 604.844L1073.84 550.126L1047.31 520.28H1083.79L1047.31 460.588L1073.84 434.058L1025.75 380.998L1083.79 357.785Z" fill="#460808"/>
</g>
<g style="mix-blend-mode:hard-light" opacity="0.8" filter="url(#filter13_d_45_110)">
<path d="M1198.2 410.845L1130.21 336.229L1100.37 492.092L1140.16 589.921L1181.61 570.024L1140.16 521.938V460.588H1198.2L1170.01 410.845H1198.2Z" fill="#460808"/>
</g>
<g style="mix-blend-mode:hard-light">
<rect x="1181.61" y="10.1181" width="16.5813" height="639.495" fill="#460808"/>
</g>
<g style="mix-blend-mode:hard-light">
<rect x="1202.85" y="10.1181" width="8.29028" height="639.495" fill="#460808"/>
</g>
<g style="mix-blend-mode:overlay">
<rect x="1208.14" y="367.734" width="16.5811" height="280.819" fill="#460808"/>
</g>
<g style="mix-blend-mode:hard-light">
<path d="M481.232 56.5454C481.232 82.1864 460.446 102.973 434.805 102.973C409.163 102.973 381.574 78.7472 381.574 53.1062C381.574 27.4651 406.505 3.36272 432.146 3.36272C457.787 3.36272 481.232 30.9043 481.232 56.5454Z" fill="#401107"/>
</g>
<circle cx="424.441" cy="47.0112" r="46.4272" fill="#731702"/>
<path d="M447.069 46.8882C447.069 69.3242 444.706 89.7557 422.27 89.7557C399.834 89.7557 381.646 71.5678 381.646 49.1318C381.646 26.6959 399.834 8.50801 422.27 8.50801C444.706 8.50801 447.069 24.4523 447.069 46.8882Z" fill="#BA721E"/>
<circle cx="429.514" cy="50.0335" r="35.4456" fill="#731702"/>
<path d="M406.86 35.2814C400.791 50.335 402.547 58.2747 412.663 71.76L416.809 57.666L444.168 46.4737L439.193 35.2814L455.774 41.9139L448.313 29.0635C427.014 18.819 418.353 21.2048 406.86 35.2814Z" fill="#401107"/>
<circle cx="430.172" cy="50.4481" r="11.1921" fill="#0D0000"/>
<g style="mix-blend-mode:overlay">
<ellipse cx="428.27" cy="580.314" rx="32.3333" ry="26.5298" fill="#BA721E"/>
</g>
<g style="mix-blend-mode:hard-light">
<circle cx="429.27" cy="599.87" r="32.3333" fill="#401107"/>
</g>
<circle cx="424.685" cy="605.259" r="26.9443" fill="#731702"/>
<g style="mix-blend-mode:color-dodge" opacity="0.6">
<ellipse cx="716.842" cy="329.335" rx="322.174" ry="322.332" fill="#BA721E"/>
</g>
<circle cx="721" cy="330.335" r="309.067" fill="#731702"/>
<g style="mix-blend-mode:soft-light">
<circle cx="715" cy="326.335" r="255.337" fill="#BA721E"/>
</g>
<g style="mix-blend-mode:hard-light">
<circle cx="720" cy="329.335" r="292.108" fill="#401107"/>
<circle cx="720" cy="329.335" r="292.108" stroke="#460808" stroke-width="3"/>
</g>
<g style="mix-blend-mode:screen">
<circle cx="720" cy="329.335" r="260.64" stroke="#731702" stroke-width="4"/>
</g>
<g style="mix-blend-mode:plus-lighter" opacity="0.3">
<circle cx="689" cy="327.335" r="226.363" fill="#BA721E"/>
</g>
<g style="mix-blend-mode:hard-light">
<rect x="1087.1" y="230.11" width="53.8887" height="304.771" fill="#401107"/>
</g>
<rect x="1094.56" y="237.572" width="39.7947" height="297.31" fill="#731702"/>
<g style="mix-blend-mode:multiply">
<path d="M1050.36 570.409L1161.72 566.293V633.447H1044.41L1050.36 570.409Z" fill="#401107"/>
</g>
<path opacity="0.8" d="M1043.16 566.568H1155.08V622.943L1044.61 630.545L1043.16 566.568Z" fill="#BA721E"/>
<rect x="1052.28" y="572.511" width="102.803" height="56.3759" fill="#731702"/>
<g style="mix-blend-mode:overlay">
<rect x="1109.07" y="591.579" width="21.5554" height="18.2393" fill="#401107"/>
</g>
<g style="mix-blend-mode:multiply">
<path d="M918.096 603.681L982.38 601.499V637.093H914.661L918.096 603.681Z" fill="#401107"/>
</g>
<path opacity="0.8" d="M913.944 601.645H978.551V631.526L914.781 635.555L913.944 601.645Z" fill="#BA721E"/>
<rect x="919.208" y="604.795" width="59.3431" height="29.8813" fill="#731702"/>
<g style="mix-blend-mode:overlay">
<rect x="926.692" y="613.276" width="30.4014" height="13.1236" fill="#401107"/>
</g>
<path d="M1172.98 108.239C1172.98 158.992 1129.26 200.336 1075.08 200.336C1020.9 200.336 977.179 158.992 977.179 108.239C977.179 57.4853 1020.9 16.1406 1075.08 16.1406C1129.26 16.1406 1172.98 57.4853 1172.98 108.239Z" stroke="#460808" stroke-width="4"/>
<ellipse cx="1076.95" cy="107.824" rx="98.0361" ry="90.3674" fill="#731702"/>
<ellipse cx="1089.59" cy="99.9479" rx="78.7603" ry="72.5425" fill="#460808"/>
<path d="M1009.76 84.1958H982.64L982.685 84.0551C989.046 64.2116 992.984 51.9283 1028.41 28.0963C1049.27 16.0681 1066.84 14.4181 1110.63 22.2352L1115.29 31.0269C1049.94 24.2089 1031.25 40.8935 1009.76 84.1958Z" fill="#BA721E"/>
<ellipse cx="1090.21" cy="104.715" rx="69.4335" ry="61.5575" fill="#731702"/>
<ellipse cx="1094.98" cy="106.305" rx="69.6409" ry="63.1474" fill="#401107"/>
<path d="M1027 120.674C1027 120.674 1029.95 141.449 1018.7 120.674C1007.46 99.9002 1026.55 14.5123 1114.46 38.5977C1033.25 36.7338 1028.18 66.3134 1027 120.674Z" fill="#BA721E"/>
<path d="M1159.02 96.2172C1159.02 124.148 1118.14 166.273 1090.21 166.273C1062.28 166.273 1039.64 143.63 1039.64 115.7C1039.64 87.7696 1058.5 41.4994 1108.45 45.6446C1136.38 45.6446 1159.02 68.2868 1159.02 96.2172Z" fill="#731702"/>
<g style="mix-blend-mode:screen">
<circle cx="1099.05" cy="95.9479" r="37.3074" fill="#BA721E"/>
</g>
<circle cx="1106.17" cy="95.3881" r="36.3074" fill="#731702" stroke="#460808" stroke-width="2"/>
<g style="mix-blend-mode:hard-light">
<circle cx="1016.61" cy="529.216" r="16.9958" fill="#BA721E"/>
</g>
<circle cx="1020.7" cy="531.361" r="16.4958" fill="#731702" stroke="#401107"/>
<circle cx="717.553" cy="330.528" r="237.169" fill="black"/>
<circle cx="715" cy="327.974" r="238.722" stroke="black" stroke-width="2"/>
<circle cx="717.554" cy="330.528" r="128.605" fill="black"/>
<circle cx="717.554" cy="330.528" r="171.432" fill="black" stroke="#A3A3A3"/>
<circle cx="717.554" cy="330.528" r="160.575" stroke="#A3A3A3"/>
<circle cx="717.554" cy="330.528" r="144.34" stroke="#A3A3A3"/>
<circle cx="715.592" cy="331.566" r="121.793" stroke="#6C6C6C"/>
<circle cx="715.311" cy="330.847" r="111.074" stroke="#6C6C6C"/>
<circle cx="717.554" cy="330.528" r="182.337" stroke="#A3A3A3"/>
<circle cx="717.554" cy="330.528" r="191.081" stroke="#A3A3A3"/>
<circle cx="717.554" cy="330.528" r="203.854" stroke="#A3A3A3"/>
<circle cx="717.554" cy="330.528" r="223.649" stroke="#A3A3A3"/>
<circle cx="717.554" cy="325.821" r="148.634" stroke="#090909" stroke-width="3"/>
<circle cx="711.308" cy="322.067" r="174.88" stroke="#090909" stroke-width="3"/>
<circle cx="715.311" cy="331.566" r="69.1536" fill="#CD3809"/>
<circle cx="716.081" cy="331.425" r="63.8272" fill="#460808"/>
<circle cx="716.101" cy="330.543" r="9.13106" fill="#090909"/>
<path d="M713.801 329.763C713.801 331.024 714.356 334.39 713.178 334.39C712 334.39 711.045 331.024 711.045 329.763C711.045 328.502 712 327.48 713.178 327.48C714.356 327.48 713.801 328.502 713.801 329.763Z" fill="#857878"/>
<defs>
<filter id="filter0_d_45_110" x="11.2524" y="52.7859" width="82.3958" height="73.9963" filterUnits="userSpaceOnUse" color-interpolation-filters="sRGB">
<feFlood flood-opacity="0" result="BackgroundImageFix"/>
<feColorMatrix in="SourceAlpha" type="matrix" values="0 0 0 0 0 0 0 0 0 0 0 0 0 0 0 0 0 0 127 0" result="hardAlpha"/>
<feOffset dy="4"/>
<feGaussianBlur stdDeviation="2"/>
<feComposite in2="hardAlpha" operator="out"/>
<feColorMatrix type="matrix" values="0 0 0 0 0.275 0 0 0 0 0.0303646 0 0 0 0 0.0303646 0 0 0 1 0"/>
<feBlend mode="normal" in2="BackgroundImageFix" result="effect1_dropShadow_45_110"/>
<feBlend mode="normal" in="SourceGraphic" in2="effect1_dropShadow_45_110" result="shape"/>
</filter>
<filter id="filter1_d_45_110" x="57.3218" y="34.7598" width="104.724" height="119.017" filterUnits="userSpaceOnUse" color-interpolation-filters="sRGB">
<feFlood flood-opacity="0" result="BackgroundImageFix"/>
<feColorMatrix in="SourceAlpha" type="matrix" values="0 0 0 0 0 0 0 0 0 0 0 0 0 0 0 0 0 0 127 0" result="hardAlpha"/>
<feOffset dy="4"/>
<feGaussianBlur stdDeviation="2"/>
<feComposite in2="hardAlpha" operator="out"/>
<feColorMatrix type="matrix" values="0 0 0 0 0.275 0 0 0 0 0.0303646 0 0 0 0 0.0303646 0 0 0 1 0"/>
<feBlend mode="normal" in2="BackgroundImageFix" result="effect1_dropShadow_45_110"/>
<feBlend mode="normal" in="SourceGraphic" in2="effect1_dropShadow_45_110" result="shape"/>
</filter>
<filter id="filter2_d_45_110" x="130.74" y="21.0876" width="111.81" height="123.674" filterUnits="userSpaceOnUse" color-interpolation-filters="sRGB">
<feFlood flood-opacity="0" result="BackgroundImageFix"/>
<feColorMatrix in="SourceAlpha" type="matrix" values="0 0 0 0 0 0 0 0 0 0 0 0 0 0 0 0 0 0 127 0" result="hardAlpha"/>
<feOffset dy="4"/>
<feGaussianBlur stdDeviation="1.85"/>
<feComposite in2="hardAlpha" operator="out"/>
<feColorMatrix type="matrix" values="0 0 0 0 0.275 0 0 0 0 0.0303646 0 0 0 0 0.0303646 0 0 0 1 0"/>
<feBlend mode="normal" in2="BackgroundImageFix" result="effect1_dropShadow_45_110"/>
<feBlend mode="normal" in="SourceGraphic" in2="effect1_dropShadow_45_110" result="shape"/>
</filter>
<filter id="filter3_d_45_110" x="4.25908" y="149.43" width="66.4147" height="69.9321" filterUnits="userSpaceOnUse" color-interpolation-filters="sRGB">
<feFlood flood-opacity="0" result="BackgroundImageFix"/>
<feColorMatrix in="SourceAlpha" type="matrix" values="0 0 0 0 0 0 0 0 0 0 0 0 0 0 0 0 0 0 127 0" result="hardAlpha"/>
<feOffset dy="4"/>
<feGaussianBlur stdDeviation="0.4"/>
<feComposite in2="hardAlpha" operator="out"/>
<feColorMatrix type="matrix" values="0 0 0 0 0.275 0 0 0 0 0.0303646 0 0 0 0 0.0303646 0 0 0 1 0"/>
<feBlend mode="normal" in2="BackgroundImageFix" result="effect1_dropShadow_45_110"/>
<feBlend mode="normal" in="SourceGraphic" in2="effect1_dropShadow_45_110" result="shape"/>
</filter>
<filter id="filter4_d_45_110" x="216.864" y="125.142" width="86.2725" height="106.019" filterUnits="userSpaceOnUse" color-interpolation-filters="sRGB">
<feFlood flood-opacity="0" result="BackgroundImageFix"/>
<feColorMatrix in="SourceAlpha" type="matrix" values="0 0 0 0 0 0 0 0 0 0 0 0 0 0 0 0 0 0 127 0" result="hardAlpha"/>
<feOffset dy="4"/>
<feGaussianBlur stdDeviation="1.5"/>
<feComposite in2="hardAlpha" operator="out"/>
<feColorMatrix type="matrix" values="0 0 0 0 0.275 0 0 0 0 0.0303646 0 0 0 0 0.0303646 0 0 0 1 0"/>
<feBlend mode="normal" in2="BackgroundImageFix" result="effect1_dropShadow_45_110"/>
<feBlend mode="normal" in="SourceGraphic" in2="effect1_dropShadow_45_110" result="shape"/>
</filter>
<filter id="filter5_d_45_110" x="-28.1646" y="211.124" width="117.477" height="108.869" filterUnits="userSpaceOnUse" color-interpolation-filters="sRGB">
<feFlood flood-opacity="0" result="BackgroundImageFix"/>
<feColorMatrix in="SourceAlpha" type="matrix" values="0 0 0 0 0 0 0 0 0 0 0 0 0 0 0 0 0 0 127 0" result="hardAlpha"/>
<feOffset dy="4"/>
<feGaussianBlur stdDeviation="1.5"/>
<feComposite in2="hardAlpha" operator="out"/>
<feColorMatrix type="matrix" values="0 0 0 0 0.275 0 0 0 0 0.0303646 0 0 0 0 0.0303646 0 0 0 1 0"/>
<feBlend mode="normal" in2="BackgroundImageFix" result="effect1_dropShadow_45_110"/>
<feBlend mode="normal" in="SourceGraphic" in2="effect1_dropShadow_45_110" result="shape"/>
</filter>
<filter id="filter6_d_45_110" x="220.906" y="241.757" width="95.4311" height="80.9204" filterUnits="userSpaceOnUse" color-interpolation-filters="sRGB">
<feFlood flood-opacity="0" result="BackgroundImageFix"/>
<feColorMatrix in="SourceAlpha" type="matrix" values="0 0 0 0 0 0 0 0 0 0 0 0 0 0 0 0 0 0 127 0" result="hardAlpha"/>
<feOffset dy="4"/>
<feGaussianBlur stdDeviation="0.95"/>
<feComposite in2="hardAlpha" operator="out"/>
<feColorMatrix type="matrix" values="0 0 0 0 0.275 0 0 0 0 0.0303646 0 0 0 0 0.0303646 0 0 0 1 0"/>
<feBlend mode="normal" in2="BackgroundImageFix" result="effect1_dropShadow_45_110"/>
<feBlend mode="normal" in="SourceGraphic" in2="effect1_dropShadow_45_110" result="shape"/>
</filter>
<filter id="filter7_d_45_110" x="227.13" y="444.646" width="130.104" height="212.407" filterUnits="userSpaceOnUse" color-interpolation-filters="sRGB">
<feFlood flood-opacity="0" result="BackgroundImageFix"/>
<feColorMatrix in="SourceAlpha" type="matrix" values="0 0 0 0 0 0 0 0 0 0 0 0 0 0 0 0 0 0 127 0" result="hardAlpha"/>
<feOffset dy="4"/>
<feGaussianBlur stdDeviation="2"/>
<feComposite in2="hardAlpha" operator="out"/>
<feColorMatrix type="matrix" values="0 0 0 0 0.275 0 0 0 0 0.0303646 0 0 0 0 0.0303646 0 0 0 1 0"/>
<feBlend mode="normal" in2="BackgroundImageFix" result="effect1_dropShadow_45_110"/>
<feBlend mode="normal" in="SourceGraphic" in2="effect1_dropShadow_45_110" result="shape"/>
</filter>
<filter id="filter8_d_45_110" x="52.8501" y="355.169" width="237.987" height="166.191" filterUnits="userSpaceOnUse" color-interpolation-filters="sRGB">
<feFlood flood-opacity="0" result="BackgroundImageFix"/>
<feColorMatrix in="SourceAlpha" type="matrix" values="0 0 0 0 0 0 0 0 0 0 0 0 0 0 0 0 0 0 127 0" result="hardAlpha"/>
<feOffset dy="4"/>
<feGaussianBlur stdDeviation="1"/>
<feComposite in2="hardAlpha" operator="out"/>
<feColorMatrix type="matrix" values="0 0 0 0 0.275 0 0 0 0 0.0303646 0 0 0 0 0.0303646 0 0 0 1 0"/>
<feBlend mode="normal" in2="BackgroundImageFix" result="effect1_dropShadow_45_110"/>
<feBlend mode="normal" in="SourceGraphic" in2="effect1_dropShadow_45_110" result="shape"/>
</filter>
<filter id="filter9_d_45_110" x="-15.5459" y="296.372" width="76.5959" height="81.5958" filterUnits="userSpaceOnUse" color-interpolation-filters="sRGB">
<feFlood flood-opacity="0" result="BackgroundImageFix"/>
<feColorMatrix in="SourceAlpha" type="matrix" values="0 0 0 0 0 0 0 0 0 0 0 0 0 0 0 0 0 0 127 0" result="hardAlpha"/>
<feOffset dy="4"/>
<feGaussianBlur stdDeviation="1"/>
<feComposite in2="hardAlpha" operator="out"/>
<feColorMatrix type="matrix" values="0 0 0 0 0.275 0 0 0 0 0.0303646 0 0 0 0 0.0303646 0 0 0 1 0"/>
<feBlend mode="normal" in2="BackgroundImageFix" result="effect1_dropShadow_45_110"/>
<feBlend mode="normal" in="SourceGraphic" in2="effect1_dropShadow_45_110" result="shape"/>
</filter>
<filter id="filter10_d_45_110" x="75.8488" y="108.383" width="87.8956" height="161.841" filterUnits="userSpaceOnUse" color-interpolation-filters="sRGB">
<feFlood flood-opacity="0" result="BackgroundImageFix"/>
<feColorMatrix in="SourceAlpha" type="matrix" values="0 0 0 0 0 0 0 0 0 0 0 0 0 0 0 0 0 0 127 0" result="hardAlpha"/>
<feMorphology radius="2" operator="erode" in="SourceAlpha" result="effect1_dropShadow_45_110"/>
<feOffset dy="4"/>
<feGaussianBlur stdDeviation="3.1"/>
<feComposite in2="hardAlpha" operator="out"/>
<feColorMatrix type="matrix" values="0 0 0 0 0.275 0 0 0 0 0.0303646 0 0 0 0 0.0303646 0 0 0 1 0"/>
<feBlend mode="normal" in2="BackgroundImageFix" result="effect1_dropShadow_45_110"/>
<feBlend mode="normal" in="SourceGraphic" in2="effect1_dropShadow_45_110" result="shape"/>
</filter>
<filter id="filter11_d_45_110" x="351.386" y="9.99518" width="37.1624" height="235.649" filterUnits="userSpaceOnUse" color-interpolation-filters="sRGB">
<feFlood flood-opacity="0" result="BackgroundImageFix"/>
<feColorMatrix in="SourceAlpha" type="matrix" values="0 0 0 0 0 0 0 0 0 0 0 0 0 0 0 0 0 0 127 0" result="hardAlpha"/>
<feOffset dy="4"/>
<feGaussianBlur stdDeviation="1"/>
<feComposite in2="hardAlpha" operator="out"/>
<feColorMatrix type="matrix" values="0 0 0 0 0.275 0 0 0 0 0.0303646 0 0 0 0 0.0303646 0 0 0 1 0"/>
<feBlend mode="normal" in2="BackgroundImageFix" result="effect1_dropShadow_45_110"/>
<feBlend mode="normal" in="SourceGraphic" in2="effect1_dropShadow_45_110" result="shape"/>
</filter>
<filter id="filter12_d_45_110" x="757.453" y="266.589" width="329.333" height="390.025" filterUnits="userSpaceOnUse" color-interpolation-filters="sRGB">
<feFlood flood-opacity="0" result="BackgroundImageFix"/>
<feColorMatrix in="SourceAlpha" type="matrix" values="0 0 0 0 0 0 0 0 0 0 0 0 0 0 0 0 0 0 127 0" result="hardAlpha"/>
<feOffset dy="4"/>
<feGaussianBlur stdDeviation="1.5"/>
<feComposite in2="hardAlpha" operator="out"/>
<feColorMatrix type="matrix" values="0 0 0 0 0.275 0 0 0 0 0.0303646 0 0 0 0 0.0303646 0 0 0 1 0"/>
<feBlend mode="normal" in2="BackgroundImageFix" result="effect1_dropShadow_45_110"/>
<feBlend mode="normal" in="SourceGraphic" in2="effect1_dropShadow_45_110" result="shape"/>
</filter>
<filter id="filter13_d_45_110" x="1096.37" y="336.229" width="105.829" height="261.692" filterUnits="userSpaceOnUse" color-interpolation-filters="sRGB">
<feFlood flood-opacity="0" result="BackgroundImageFix"/>
<feColorMatrix in="SourceAlpha" type="matrix" values="0 0 0 0 0 0 0 0 0 0 0 0 0 0 0 0 0 0 127 0" result="hardAlpha"/>
<feOffset dy="4"/>
<feGaussianBlur stdDeviation="2"/>
<feComposite in2="hardAlpha" operator="out"/>
<feColorMatrix type="matrix" values="0 0 0 0 0.275 0 0 0 0 0.0303646 0 0 0 0 0.0303646 0 0 0 1 0"/>
<feBlend mode="normal" in2="BackgroundImageFix" result="effect1_dropShadow_45_110"/>
<feBlend mode="normal" in="SourceGraphic" in2="effect1_dropShadow_45_110" result="shape"/>
</filter>
</defs>
</svg>
