<svg width="157" height="157" viewBox="0 0 157 157" fill="none" xmlns="http://www.w3.org/2000/svg">
<path fill-rule="evenodd" clip-rule="evenodd" d="M78.5554 152.693C119.387 152.693 152.487 119.593 152.487 78.7617C152.487 37.9305 119.387 4.83032 78.5554 4.83032C37.7242 4.83032 4.62402 37.9305 4.62402 78.7617C4.62402 119.593 37.7242 152.693 78.5554 152.693ZM78.5554 156.693C121.596 156.693 156.487 121.802 156.487 78.7617C156.487 35.7214 121.596 0.830322 78.5554 0.830322C35.5151 0.830322 0.624023 35.7214 0.624023 78.7617C0.624023 121.802 35.5151 156.693 78.5554 156.693ZM62.2307 54.4627C62.2307 52.7728 63.6006 51.4028 65.2905 51.4028C66.9804 51.4028 68.3503 52.7728 68.3503 54.4626V103.061C68.3503 104.751 66.9804 106.121 65.2905 106.121C63.6006 106.121 62.2307 104.751 62.2307 103.061V54.4627ZM91.8203 51.4028C90.1304 51.4028 88.7605 52.7728 88.7605 54.4627V103.061C88.7605 104.751 90.1304 106.121 91.8203 106.121C93.5102 106.121 94.8801 104.751 94.8801 103.061V54.4626C94.8801 52.7728 93.5102 51.4028 91.8203 51.4028Z" fill="white"/>
</svg>
