<svg width="480" height="481" viewBox="0 0 480 481" fill="none" xmlns="http://www.w3.org/2000/svg">
<circle cx="242.5" cy="243.002" r="237.169" fill="black"/>
<circle cx="239.947" cy="240.449" r="238.722" stroke="black" stroke-width="2"/>
<circle cx="242.5" cy="243.002" r="128.605" fill="black"/>
<circle cx="242.5" cy="243.002" r="171.432" fill="black" stroke="#A3A3A3"/>
<circle cx="242.5" cy="243.002" r="160.575" stroke="#A3A3A3"/>
<circle cx="242.5" cy="243.002" r="144.34" stroke="#A3A3A3"/>
<circle cx="240.538" cy="244.04" r="121.793" stroke="#6C6C6C"/>
<circle cx="240.257" cy="243.321" r="111.074" stroke="#6C6C6C"/>
<circle cx="242.5" cy="243.002" r="182.337" stroke="#A3A3A3"/>
<circle cx="242.5" cy="243.002" r="191.081" stroke="#A3A3A3"/>
<circle cx="242.5" cy="243.002" r="203.854" stroke="#A3A3A3"/>
<circle cx="242.5" cy="243.002" r="223.649" stroke="#A3A3A3"/>
<circle cx="242.5" cy="238.296" r="148.634" stroke="#090909" stroke-width="3"/>
<circle cx="236.254" cy="234.541" r="174.88" stroke="#090909" stroke-width="3"/>
<circle cx="240.257" cy="244.04" r="69.1536" fill="#CD3809"/>
<circle cx="241.028" cy="243.9" r="63.8272" fill="#460808"/>
<circle cx="241.047" cy="243.018" r="9.13106" fill="#090909"/>
<path d="M238.747 242.237C238.747 243.498 239.302 246.864 238.124 246.864C236.946 246.864 235.991 243.498 235.991 242.237C235.991 240.977 236.946 239.955 238.124 239.955C239.302 239.955 238.747 240.977 238.747 242.237Z" fill="#857878"/>
</svg>
